<svg xmlns="http://www.w3.org/2000/svg" shape-rendering="geometricPrecision" text-rendering="geometricPrecision" image-rendering="optimizeQuality" fill-rule="evenodd" clip-rule="evenodd" viewBox="0 0 512 512"><path fill-rule="nonzero" d="M255.998 0c70.69 0 134.694 28.657 181.017 74.981C483.342 121.308 512 185.309 512 255.998c0 70.69-28.658 134.694-74.982 181.017C390.692 483.342 326.688 512 255.998 512c-70.689 0-134.69-28.658-181.017-74.985C28.657 390.692 0 326.688 0 255.998c0-70.689 28.657-134.687 74.981-181.017C121.311 28.657 185.309 0 255.998 0zm86.262 349.762h-66.007l-24.604-55.808h-12.902v55.808H178.74V162.24h94.512c43.005 0 64.509 21.903 64.509 65.707 0 30.003-9.301 49.807-27.904 59.409l32.403 62.406zM238.747 210.245v37.506h13.803c7.199 0 12.452-.751 15.75-2.252 3.3-1.499 4.952-4.95 4.952-10.35v-12.302c0-5.4-1.652-8.85-4.952-10.352-3.298-1.499-8.551-2.25-15.75-2.25h-13.803zm171.076-108.072C370.461 62.812 316.071 38.46 255.998 38.46c-60.072 0-114.46 24.352-153.825 63.713-39.361 39.365-63.713 93.753-63.713 153.825 0 60.073 24.352 114.463 63.713 153.825 39.365 39.365 93.753 63.716 153.825 63.716 60.073 0 114.463-24.351 153.828-63.716 39.362-39.362 63.713-93.752 63.713-153.825 0-60.072-24.351-114.46-63.716-153.825z"/></svg>